<?xml version="1.0" standalone="no"?>
<!DOCTYPE svg PUBLIC "-//W3C//DTD SVG 20010904//EN"
 "http://www.w3.org/TR/2001/REC-SVG-20010904/DTD/svg10.dtd">
<svg version="1.0" xmlns="http://www.w3.org/2000/svg"
 width="800.000000pt" height="270.000000pt" viewBox="0 0 800.000000 270.000000"
 preserveAspectRatio="xMidYMid meet">

<g transform="translate(0.000000,270.000000) scale(0.100000,-0.100000)"
fill="#FFFFFF" stroke="none">
<path d="M805 1944 c-48 -12 -144 -65 -185 -102 -27 -24 -59 -67 -80 -108 -33
-65 -35 -75 -35 -169 1 -87 4 -108 27 -157 51 -110 137 -177 267 -208 60 -14
219 -9 264 9 l27 11 0 125 c0 69 -3 125 -7 125 -3 0 -14 -6 -22 -14 -50 -43
-151 -48 -207 -10 -48 33 -61 49 -74 97 -9 31 -8 45 8 80 27 60 62 88 116 94
60 7 107 -3 149 -31 20 -14 37 -23 39 -21 2 2 2 60 0 129 -3 117 -5 127 -25
137 -22 12 -227 22 -262 13z"/>
<path d="M5045 1941 c-58 -15 -130 -52 -163 -84 -42 -41 -62 -80 -69 -139 -16
-134 50 -203 231 -236 32 -6 64 -17 72 -23 21 -17 17 -46 -8 -63 -38 -27 -99
-20 -174 19 -62 33 -68 34 -80 17 -7 -9 -14 -24 -14 -33 0 -8 -4 -19 -8 -25
-15 -16 -44 -104 -39 -117 10 -25 182 -66 277 -67 199 0 340 108 340 262 0
117 -54 170 -211 209 -119 30 -150 63 -88 95 36 18 75 14 145 -17 25 -10 50
-16 55 -13 15 9 75 161 67 169 -2 2 -26 13 -53 25 -54 24 -223 36 -280 21z"/>
<path d="M6075 1943 c-91 -21 -146 -49 -208 -103 -156 -138 -153 -409 6 -545
199 -170 580 -118 690 95 59 113 56 276 -6 373 -81 126 -209 188 -382 186 -44
-1 -89 -3 -100 -6z m187 -249 c63 -33 87 -143 45 -205 -74 -110 -248 -78 -273
50 -26 129 106 218 228 155z"/>
<path d="M7486 1929 c-20 -16 -26 -29 -26 -59 0 -30 6 -43 26 -59 15 -12 37
-21 49 -21 12 0 34 9 49 21 20 16 26 29 26 59 0 30 -6 43 -26 59 -15 12 -37
21 -49 21 -12 0 -34 -9 -49 -21z m91 -11 c29 -27 29 -65 1 -95 -27 -29 -55
-29 -85 -1 -29 27 -29 66 0 95 28 28 55 29 84 1z"/>
<path d="M7507 1913 c-11 -10 -8 -83 3 -83 6 0 10 5 10 10 0 6 7 10 15 10 8 0
15 -4 15 -10 0 -5 4 -10 9 -10 18 0 10 70 -9 80 -22 12 -34 13 -43 3z m40 -29
c-3 -3 -12 -4 -19 -1 -8 3 -5 6 6 6 11 1 17 -2 13 -5z"/>
<path d="M1147 1934 c-4 -4 -7 -171 -7 -371 l0 -363 250 0 251 0 -3 116 -3
116 -110 1 -110 2 -5 250 -5 250 -126 3 c-69 1 -128 -1 -132 -4z"/>
<path d="M1687 1933 c-4 -3 -7 -170 -7 -370 l0 -363 399 0 399 0 14 43 13 42
103 3 102 3 20 -46 19 -45 276 0 275 0 0 111 c0 75 3 110 11 107 6 -2 36 -52
67 -111 l56 -107 153 0 c84 0 153 2 153 5 0 10 -120 187 -156 232 -19 23 -34
46 -34 52 0 5 19 19 43 29 71 32 97 81 97 181 0 50 1 53 14 36 7 -11 85 -199
172 -417 87 -219 162 -398 166 -398 4 0 10 10 13 23 4 12 13 36 20 52 7 17 34
82 60 145 26 63 51 124 55 135 18 40 89 214 125 306 20 52 43 110 51 129 9 19
19 44 24 55 4 11 22 53 38 93 23 54 28 74 19 78 -7 2 -73 3 -147 2 -133 -3
-134 -3 -141 -28 -4 -14 -23 -77 -42 -140 -19 -63 -41 -136 -48 -163 -7 -26
-18 -46 -23 -44 -9 3 -55 136 -101 292 -10 33 -23 66 -28 73 -7 8 -49 12 -148
12 -154 0 -151 1 -119 -65 28 -58 25 -61 -22 -23 -96 78 -152 90 -403 86
l-190 -3 -3 -327 c-2 -282 -4 -328 -17 -328 -8 0 -15 7 -15 15 0 8 -6 29 -14
47 -8 18 -34 85 -57 148 -23 63 -49 133 -59 155 -10 22 -37 92 -60 155 -24 63
-47 121 -53 128 -7 8 -48 12 -142 12 -141 0 -165 -4 -165 -26 0 -7 -7 -28 -14
-46 -19 -42 -196 -528 -213 -582 -5 -17 -15 -32 -22 -34 -10 -3 -12 12 -9 64
l3 69 -118 3 -118 3 3 42 3 42 95 1 95 1 3 91 3 91 -98 3 -98 3 -3 36 -3 36
62 7 c34 3 84 6 110 6 l49 0 0 95 0 95 -243 0 c-134 0 -247 -3 -250 -7z m1713
-213 c27 -27 25 -56 -5 -86 -19 -19 -34 -24 -58 -22 -32 3 -32 3 -35 66 l-3
62 41 0 c27 0 47 -7 60 -20z m-775 -72 c2 -13 11 -54 20 -91 8 -38 15 -72 15
-78 0 -5 -23 -9 -51 -9 -42 0 -50 3 -45 15 3 9 14 54 23 100 18 86 28 104 38
63z"/>
<path d="M4485 1928 c-3 -7 -4 -173 -3 -368 l3 -355 134 0 134 0 0 365 0 365
-132 3 c-100 2 -133 -1 -136 -10z"/>
<path d="M5445 1927 c-3 -6 -4 -172 -3 -367 l3 -355 135 0 135 0 3 368 2 367
-135 0 c-100 0 -137 -3 -140 -13z"/>
<path d="M6650 1938 c0 -2 -1 -166 -3 -366 l-2 -362 128 0 127 0 0 151 c0 111
3 150 12 147 6 -2 55 -69 108 -149 l96 -144 144 -3 145 -3 -2 363 -3 363 -136
0 -136 0 1 -147 c2 -116 -1 -148 -11 -147 -7 0 -44 48 -83 106 -38 58 -83 125
-99 149 l-30 44 -128 0 c-70 0 -128 -1 -128 -2z"/>
<path d="M5636 1109 c-18 -42 -35 -84 -38 -95 -2 -10 -12 -20 -22 -22 -10 -2
-32 -19 -48 -38 -17 -19 -36 -34 -44 -34 -17 0 -19 58 -2 95 13 29 12 31 -24
40 -22 6 -34 0 -71 -34 -24 -23 -49 -41 -54 -41 -5 0 -18 -9 -30 -19 -37 -35
-83 -54 -99 -40 -19 16 -18 38 6 77 17 28 25 33 45 28 26 -7 43 10 27 26 -16
16 -57 2 -89 -30 -37 -37 -122 -102 -134 -102 -15 0 -10 34 12 79 12 26 17 47
12 52 -15 15 -48 -33 -62 -89 -12 -47 -11 -56 2 -69 13 -13 18 -13 43 0 16 8
40 27 53 41 29 31 45 34 38 5 -3 -13 2 -28 13 -39 18 -18 22 -18 64 -4 24 8
52 24 62 35 23 26 32 24 36 -8 4 -37 28 -40 66 -8 36 30 42 31 42 7 0 -10 5
-23 11 -29 15 -15 59 6 86 40 33 41 45 43 38 5 -10 -54 12 -64 66 -29 43 27
89 81 70 81 -6 0 -14 -6 -18 -13 -10 -16 -63 -57 -74 -57 -21 0 6 97 57 203
14 28 15 40 6 49 -9 9 -20 -6 -46 -63z m-196 -99 c0 -18 -43 -70 -57 -70 -11
0 -11 5 -2 23 23 45 59 73 59 47z"/>
<path d="M5085 1150 c-3 -5 -1 -20 6 -32 l12 -22 9 23 c12 33 -10 58 -27 31z"/>
<path d="M4909 1079 c-11 -23 -29 -44 -39 -46 -11 -3 -22 -13 -25 -22 -6 -20
-63 -53 -70 -41 -3 5 -1 18 5 29 23 43 -22 68 -64 36 -28 -22 -37 -18 -30 10
5 19 2 25 -9 25 -11 0 -23 -22 -37 -72 -12 -40 -34 -112 -51 -160 -16 -47 -29
-89 -29 -92 0 -8 44 -8 64 0 23 9 20 24 -4 24 -25 0 -25 3 -1 65 15 41 24 51
48 56 41 8 121 48 166 82 21 16 40 28 42 26 1 -2 -4 -24 -12 -48 -14 -41 -14
-46 2 -57 20 -15 57 -3 90 28 20 19 20 19 -8 9 -46 -18 -50 -15 -44 30 6 46
19 59 58 59 15 0 32 7 40 16 11 13 9 14 -14 9 -15 -4 -34 -4 -43 -1 -15 6 -15
8 0 31 16 25 14 45 -4 45 -5 0 -19 -19 -31 -41z m-169 -80 c0 -21 -50 -79 -69
-79 -22 0 -10 30 26 65 20 19 38 35 40 35 1 0 3 -9 3 -21z"/>
<path d="M4502 1056 c-27 -14 -72 -95 -72 -130 0 -38 27 -48 71 -26 68 35 90
107 47 148 -20 17 -26 19 -46 8z m33 -46 c9 -15 -33 -90 -51 -90 -13 0 -15 6
-9 28 13 53 45 87 60 62z"/>
<path d="M6084 1052 c-11 -9 -28 -30 -38 -45 -9 -15 -21 -25 -25 -23 -5 3 -17
-4 -27 -15 -32 -35 -93 -62 -110 -48 -19 16 -18 38 6 77 16 26 26 32 47 30 30
-3 43 19 18 29 -27 10 -85 -27 -106 -69 -25 -48 -24 -73 2 -92 18 -12 26 -12
64 1 24 8 51 23 61 34 23 26 44 24 44 -5 0 -41 21 -48 71 -23 35 18 47 30 59
64 13 40 13 44 -6 70 -26 34 -34 36 -60 15z m36 -53 c0 -27 -31 -79 -47 -79
-19 0 -16 30 7 68 23 37 40 42 40 11z"/>
<path d="M6239 1049 c-7 -13 -13 -33 -14 -44 -1 -11 -6 -39 -10 -61 -12 -67
10 -67 59 -1 16 20 35 37 42 37 16 0 19 -16 4 -25 -12 -7 -14 -65 -2 -65 4 0
26 18 47 40 44 45 60 50 51 17 -5 -23 16 -67 33 -67 5 0 29 18 55 41 56 49 58
40 17 -81 -16 -47 -27 -88 -24 -92 8 -14 50 -9 63 7 10 13 9 15 -10 15 -19 0
-21 4 -15 27 15 61 34 93 55 93 21 0 110 43 168 81 36 24 38 22 18 -26 -13
-30 -13 -35 3 -49 16 -14 20 -13 52 14 42 36 45 36 53 6 10 -39 31 -38 80 5
l46 41 0 -31 c0 -34 25 -44 34 -13 7 21 73 88 81 81 2 -3 0 -22 -6 -42 -12
-43 2 -77 31 -77 10 0 34 16 53 35 43 44 57 44 57 0 0 -35 -51 -118 -93 -154
-17 -13 -24 -51 -9 -51 13 1 72 60 72 73 0 7 29 47 64 90 89 106 125 187 85
187 -5 0 -14 -12 -21 -27 -46 -116 -68 -127 -68 -37 0 48 -3 65 -12 62 -7 -3
-14 -18 -16 -34 -2 -18 -20 -46 -45 -71 -67 -70 -92 -53 -57 40 33 88 22 90
-68 16 -20 -16 -28 -1 -13 23 9 14 9 24 2 31 -15 15 -38 -8 -46 -44 -4 -16
-12 -29 -19 -29 -7 0 -27 -16 -46 -35 -19 -19 -40 -35 -47 -35 -16 0 -17 60
-1 95 13 29 12 31 -24 40 -23 6 -34 1 -63 -28 -21 -21 -42 -34 -50 -31 -8 3
-28 -4 -44 -15 -16 -12 -32 -21 -35 -21 -3 0 -3 20 1 45 5 43 4 45 -18 45 -13
0 -33 -7 -43 -15 -29 -22 -37 -18 -30 12 6 22 4 25 -10 20 -10 -4 -20 -7 -22
-7 -2 0 -4 -9 -4 -19 0 -21 -97 -131 -116 -131 -6 0 -14 6 -17 14 -7 18 10 83
23 91 14 9 12 35 -1 35 -7 0 -32 -18 -56 -41 -25 -22 -46 -39 -49 -37 -2 2 1
20 6 38 16 55 -3 57 -58 6 -27 -25 -52 -46 -55 -46 -8 0 4 43 16 58 7 9 6 18
-5 29 -15 14 -17 13 -29 -8z m641 -40 c0 -19 -41 -69 -56 -69 -20 0 -18 8 12
47 25 33 44 43 44 22z m-210 -15 c0 -18 -53 -74 -69 -74 -21 0 -11 29 20 59
34 34 49 39 49 15z"/>
</g>
</svg>
